<svg xmlns="http://www.w3.org/2000/svg" viewBox="0 0 520 520" fill="none" width="1em" height="1em">
  <path fill="currentColor"
    d="M58.29 520H44c6.536-7.499 12.752-15.388 18.684-23.559 1.307-1.782 2.527-3.631 3.746-5.477 1.11-1.683 2.22-3.364 3.392-4.99 2.51-3.53 5.007-7.082 7.51-10.642l.005-.008c6.135-8.726 12.305-17.503 18.789-26.131.722-.957 1.441-1.917 2.161-2.877l.003-.004c3.336-4.449 6.682-8.911 10.29-13.174 1.4-1.659 2.838-3.313 4.456-4.86 1.509-1.604 3.193-3.063 4.947-4.472a19.738 19.738 0 0 1 2.713-2.003c.303-.188.596-.389.89-.59.636-.436 1.275-.875 2.023-1.186l.412-.169c2.004-.825 3.995-1.644 6.196-1.814 2.794-.37 2.453.01.873 1.766l-.102.114c-.158.197-.331.404-.513.624-.288.342-.571.689-.848 1.041-.241.436-.523.829-.815 1.238-.24.335-.487.68-.724 1.065-.283.426-.573.84-.864 1.254-.291.415-.582.829-.864 1.254-.675.795-1.388 1.584-2.21 2.316-2.811 2.887-5.447 5.919-7.933 9.248-2.654 3.147-5.184 6.508-7.682 9.913l-14.99 20.98c-3.831 5.158-7.356 10.749-10.898 16.367l-.001.002-.002.003c-2.211 3.507-4.429 7.025-6.732 10.454-5.59 8.252-11.418 16.411-17.622 24.317Zm101.761 0h-10.183l.494-2.456v-.003c.981-4.884 1.965-9.788 3.148-14.606 2.733-10.863 6.022-21.56 9.457-32.196 2.034-6.348 4.234-12.597 6.445-18.878l.232-.659a464.83 464.83 0 0 1 1.772-4.877c.693-2.957 1.777-5.852 3.028-8.656a101.443 101.443 0 0 1 1.571-3.359c1.353-3.431 2.73-6.85 4.117-10.254-.544.59-1.091 1.179-1.64 1.767l-.204-.191-.051.071-.076.075c-4.447 4.37-8.858 8.704-14.486 12.416-3.061 2.348-6.367 4.259-9.476 4.651l-.251-.002-.14-.001c-1.236-.005-2.473-.011-3.616-.621-.258-.102-.482-.271-.701-.437-.062-.047-.124-.094-.186-.138-.1-.066-.194-.118-.283-.168-.197-.11-.37-.207-.529-.396-.405-.262-.586-.692-.766-1.122-.073-.172-.145-.344-.231-.505-.219-.406-.385-.887-.543-1.345-.062-.178-.122-.353-.184-.518l-.357-.971c-.064-.205-.076-.462-.088-.723-.008-.165-.016-.332-.037-.489a40.427 40.427 0 0 1-.153-4.797l.05-2.339.115-1.494.254-3.353v-.002c.138-1.825.274-3.621.449-5.445.301-3.454.286-6.877.188-10.273-.094-2.162-.308-4.304-.529-6.406-.178-.948-.207-1.94-.236-2.938-.034-1.159-.068-2.325-.337-3.436-.183-1.341.135-1.371 1.183-.572.524.4 1.361 1.047 2.086 1.916.164.206.35.418.544.638.66.748 1.405 1.594 1.605 2.64 1.39 4.631 2.153 9.284 2.648 13.896.229 2.302.381 4.593.457 6.872-.001 2.268-.122 4.556-.275 6.799l-.068.944-.169 1.087c-.073.466-.03.95.056 1.401.004.478.413.86.901.737.383-.045.721-.187 1.079-.339l.157-.065c.121-.051.245-.115.377-.183l.19-.096.109-.053.342-.186s.171-.093.53-.395c1.073-.867 2.119-1.818 3.172-2.808.626-.601 1.267-1.204 1.913-1.812l.001-.001c1.486-1.398 3.001-2.823 4.431-4.319 2.557-2.625 5.082-5.295 7.511-8.099l.191-.221c3.606-4.17 7.244-8.377 10.333-12.938 2.005-2.912 3.561-6.078 5.104-9.217l.003-.007c.359-.73.717-1.459 1.08-2.183.136-.284.263-.573.391-.863.255-.579.509-1.158.827-1.692 1.76-3.027 3.071-3.42 6.11-2.35l.249.079.262.082h.001c.536.166 1.066.331 1.564.559 1.894.871 2.843 2.717 2.585 4.911l.04.014.054.02c.462.218.768.588.941 1.094.187.177.372.365.555.562 5.108 5.239 8.675 11.759 11.02 18.517 2.384 6.765 3.746 13.76 4.733 20.619.574 4.137.963 8.296 1.339 12.318.088.936.175 1.865.263 2.784l.158 1.779c.015.219 0 .24-.008.253-.005.007-.008.012 0 .058l-.024.152c-.024.152.086.208.202.226l-.048.305-.077-.012s.148.062.43.028c.859-.239 1.795-.583 2.711-.92l.231-.085.186-.068a92.922 92.922 0 0 0 6.426-2.742c4.263-2.027 8.535-4.364 12.669-6.839 1.832-1.115 3.595-2.357 5.359-3.599l.001-.001c1.134-.798 2.269-1.597 3.423-2.363 10.43-6.914 20.505-14.586 29.766-23.125 4.066-3.811 7.865-7.937 11.478-12.131 2.279-2.725 4.454-5.545 6.584-8.332.494-.551.981-1.105 1.468-1.659 1.868-2.125 3.728-4.241 5.905-6.16 1.776-1.517 2.161-.95 2.237 1.362.223 2.374.041 6.595-1.908 10.502-4.115 6.416-8.827 12.349-14.031 17.893a148.795 148.795 0 0 1-16.991 15.094c-2.769 2.114-5.51 4.348-8.269 6.596l-.003.002c-4.426 3.606-8.899 7.25-13.61 10.503-8.439 5.782-17.171 11.167-27.042 15.245l-2.348.882-1.456.475-.433.139c-.424.136-.836.269-1.266.377-2.262.583-4.532.971-6.626.723a5.009 5.009 0 0 1-1.503-.234l-.715-.228-.193-.03c.052-.169.012-.172-.03-.176-.023-.002-.046-.004-.056-.033l-.367-.174c-.748-.393-1.126-1.115-1.496-1.823l-.001-.001c-.1-.191-.199-.38-.304-.561-.858-1.849-1.242-4.209-1.533-6.398-.256-1.91-.33-2.702-.449-3.967l-.001-.002-.327-3.481-.706-6.894c-.554-4.569-1.196-9.074-2.254-13.449-1.065-4.556-2.698-8.885-4.641-12.959-1.399 1.587-2.89 3.114-4.411 4.657-1.611 1.574-2.853 3.519-4.089 5.456l-.299.467c-.119.187-.239.374-.36.56-.672 1.733-1.344 3.475-2.018 5.222-1.407 3.65-2.824 7.324-4.273 10.987-3.974 10.12-7.815 20.379-11.296 30.812l-.265-.041-.101-.095c-3.646 10.25-7.039 20.618-10.065 31.121l-2.998 11.566A708.519 708.519 0 0 0 160.051 520ZM475 520h-13.411c-7.363-13.295-15.17-26.347-23.489-39.058-12.967-19.839-27.313-38.906-42.831-56.5-19.975-22.584-42.493-42.726-66.978-59.823-6.821-6.045-6.197-5.906 1.149-4.266l.147.033.866.193c8.363 1.617 22.705 7.791 36.656 19.267 12.409 10.013 23.547 21.367 34.203 33.039 10.694 11.678 20.495 24.046 29.852 36.738A597.885 597.885 0 0 1 475 520Z" />
  <path fill="currentColor" fill-rule="evenodd"
    d="M85.122 46.758c-2.387 8.65-3.24 17.543-2.674 26.469l-.026.027-.24.035c1.14 18.066 9.694 36.285 23.735 48.134 2.646 2.322 5.391 4.426 8.316 6.283 1.424.97 2.897 1.831 4.397 2.665.144.077.357.202.619.356.677.399 1.687.992 2.706 1.461l4.133 2.004 4.643.407c1.648-.323 2.85-1.167 3.961-2.356 1.138-1.163 1.988-2.959 2.786-4.699l1.862-4.321c1.462-3.503 2.93-6.793 4.649-9.796a41.517 41.517 0 0 1 5.776-8.121c2.087-2.4 4.509-4.382 7.324-5.788a88.57 88.57 0 0 1 3.154-1.484 33.314 33.314 0 0 0-.197 2.697 59.21 59.21 0 0 0 1.173 8.664c1.11 4.409 2.593 8.751 4.365 12.95 1.925 4.756 4.351 9.308 7.145 13.633a93.643 93.643 0 0 0 9.292 12.276c1.245 1.476 2.662 2.791 4.083 4.11.711.66 1.423 1.321 2.115 2.003a152.303 152.303 0 0 0 18.536 15.073l.055.051-.155.166c6.704 4.463 13.792 8.403 21.178 11.637 7.996 3.514 16.54 6.19 25.134 6.638a60.304 60.304 0 0 0-1.353 2.047c-1.012 1.747-1.943 3.519-2.71 5.393-3.704 8.453-5.893 17.39-7.167 26.512-1.642 11.731-1.389 24.095 2.502 35.668 1.276 3.733 2.816 7.404 4.993 10.893 1.102 1.758 2.361 3.403 4.048 5.033 2.071 1.94 4.932 3.478 7.71 2.554l.555-.206c.144-.058.284-.111.421-.163.414-.157.807-.306 1.24-.562.265-.161.515-.297.74-.419l.002-.001c.289-.156.538-.291.728-.432.226-.171.462-.342.7-.513.505-.365 1.016-.734 1.44-1.112 1.115-.92 2.084-1.871 3.028-2.797l.604-.592a85.963 85.963 0 0 1 6.614-6.247c4.37-3.735 9.295-6.069 13.844-6.061 8.287-.223 16.56 8.766 16.234 17.427-.102 1.771-.337 3.519-.844 5.17l-.252 1.267a8.143 8.143 0 0 1-.341.82l-.089.195-.091.208a7.436 7.436 0 0 0-.405.993c-.173.492-.348.989-.665 1.426l-1.447 2.325c-.307.504-.713.958-1.12 1.413-.232.259-.465.519-.679.789-.776 1.151-1.926 2.006-3.085 2.867-.444.324-.88.658-1.308 1.003a32.907 32.907 0 0 1-3.109 1.99c-.45.139-.869.364-1.233.662-5.524 2.806-11.685 3.907-17.658 2.717-4.301-.606-8.65-1.049-11.359-1.253-2.582-.396-3.196-.348-1.222 1.862.806.91 1.662 1.712 2.623 2.456.739.498 1.522.948 2.304 1.399l.294.169.321.187.166.097c2.15 1.08 4.431 2.074 6.854 2.529 4.444.912 9.076.681 13.427-.363-1.11 5.091-1.177 10.453.061 15.685 1.618 7.578 6.624 14.079 12.502 18.65a49.935 49.935 0 0 0 12.894 7.147c7.477 2.749 15.446 4.25 23.687 3.465l.09-.014.123-.016.103-.011.229-.023h.003c.388-.038.867-.085 1.29-.185l4.089-.94c.383-.131.754-.293 1.121-.454l.222-.096c.141-.062.283-.121.425-.179 2.43-.938 4.286-2.259 5.819-3.623.291-.208.406-.462.519-.711.069-.152.137-.303.245-.439l.329-.573c-.002-.038.031-.07.062-.102.058-.057.113-.112-.045-.193.011-.068.042-.129.073-.19a.62.62 0 0 0 .074-.19c-.003-.736-.226-1.134-.488-1.602-.072-.129-.147-.262-.221-.41-.342-.631-.981-1.333-1.754-2.057-.908-.746-2.056-1.458-3.389-2.136l-3.27-1.765a55.162 55.162 0 0 0-.922-.509c-.755-.412-1.483-.81-1.697-1.01-1.094-.714-2.109-1.456-3.124-2.199-1.977-1.541-3.797-3.14-5.244-4.806-1.474-1.691-2.471-3.506-2.991-5.443-.652-1.907-.886-4.095-.537-6.463.34-2.636.354-5.422.325-7.108-.091-1.407-.449-2.117-1.188-1.542l.041-.188.082-.381c.54.334 1.174.618 1.933.85 1.978.764 4.892.693 9.187.308 2.315-.372 4.548-.821 6.806-1.299 10.248-2.378 19.757-6.847 28.558-12.498 11.204-7.391 21.126-17.124 28.313-28.639 4.778-7.551 8.625-15.714 11.255-24.292 4.379-13.885 5.725-28.847 3.418-43.445-2.104-13.32-8.067-26.055-16.289-36.707a72.293 72.293 0 0 0-25.846-20.827c-5.134-2.319-10.55-4.28-16.276-5.079-2.102-.452-4.282-.54-6.462-.627-.727-.03-1.454-.059-2.177-.102-.415.033-.829.064-1.244.095-2.493.185-4.981.37-7.414 1.025a18.63 18.63 0 0 0-4.452 1.472c.66-1.515 1.265-3.057 1.869-4.597.364-.926.727-1.851 1.101-2.77.689-1.443 1.084-2.998 1.481-4.56.194-.764.389-1.53.618-2.285.215-.885.469-1.763.724-2.643.413-1.428.828-2.86 1.077-4.327 2.725-12.116 2.671-24.969-.225-37.164l-.637-3.032c-.182-.654-.412-1.307-.642-1.96a56.974 56.974 0 0 1-.339-.98l-2.069-5.876c-.433-1.26-1.035-2.43-1.639-3.601a47.182 47.182 0 0 1-1.011-2.041 53.96 53.96 0 0 1-.924-1.868c-.601-1.253-1.202-2.506-1.989-3.658-6.942-11.578-16.984-21.446-28.924-28.062-2.561-1.261-5.141-2.41-7.744-3.568l-.733-.327c-1.389-.73-2.902-1.161-4.387-1.567l-4.459-1.323c-5.872-1.973-12.264-2.723-18.322-3.056-10.272-.754-20.577 1.519-29.939 5.608-4.61 2.163-9.13 4.618-13.199 7.753-1.604 1.122-3.076 2.429-4.543 3.73-.446.396-.891.791-1.339 1.18-1.759 1.827-3.515 3.707-4.997 5.792-2.659 3.379-3.917 7.048-4.429 9.847l-1.382-1.294c-.073-.525-.183-1.044-.293-1.563a30.264 30.264 0 0 1-.23-1.155l-.089-.44-.061-.301-.053-.268c-.24-1.205-.48-2.407-.833-3.589-1.702-6.102-4.913-11.7-8.667-16.77-6.039-7.778-14.116-14.095-23.184-18.023-20.212-9.179-45.035-8.214-64.7 3.8-5.559 3.399-10.438 7.9-14.548 13.02-5.735 6.913-9.874 15.166-12.288 23.79ZM330.07 65.394a67.414 67.414 0 0 1 2.733 6.923c-17.461-30.51-62.393-61.546-116.575-23.08l.601-.695.051-.06.003-.003.003-.004c1.642-1.899 3.266-3.777 5.067-5.52.555-.502 1.108-1.008 1.66-1.514 2.754-2.524 5.511-5.052 8.675-7.053 5.782-3.916 12.317-6.92 19.111-8.594 7.696-1.864 15.618-2.585 23.329-1.638 1.933.203 3.814.462 5.703.934 1.8.298 3.587.915 5.348 1.523l.244.084 5.546 1.823c1.206.416 2.348.995 3.482 1.57.596.302 1.19.603 1.79.878 4.037 1.672 7.704 4.067 11.34 6.443l.087.057c9.658 7.176 17.285 16.856 22.062 27.703l-.049.109-.211.114Zm-135.5-34.13c-9.978-13.248-26.281-21.33-43.666-22.38-13.704-.96-28.146 4.022-38.685 12.918A51.296 51.296 0 0 0 98.37 39.727c-2.224 4.716-3.708 9.79-4.616 15.019 16.42-46.85 76.721-48.332 100.816-23.482Z"
    clip-rule="evenodd" />
  <path fill="currentColor"
    d="M145.505 343.77a97.131 97.131 0 0 1-23.536-15.763 78.606 78.606 0 0 1-3.81-3.514c-1.27-1.19-2.541-2.379-3.577-3.764a69.033 69.033 0 0 1-10.038-15.357c-2.698-5.48-4.738-11.277-5.926-17.209-1.165-5.237-1.718-10.575-2.162-15.863-.36-6.763.024-13.712 2.944-19.996.791-1.955 1.474-1.522 2.475.399.123.271.268.573.425.902.944 1.976 2.353 4.927 2.548 7.997.103 12.69 1.179 24.893 5.485 36.854 2.514 7.173 7.542 13.539 12.948 19.17 5.959 6.201 12.909 11.619 20.648 15.806 4.691 2.681 9.713 4.843 14.831 6.68 7.743 2.741 15.89 4.718 24.046 5.409 6.358.51 12.627-.048 18.693-1.055a61.947 61.947 0 0 0 1.751-.374h.004a50.058 50.058 0 0 1 2.178-.453c2.447-.404 4.13-.487 5.367-.314 1.267.306 2.115.84 2.916 1.59l.056.052.066.059.08.069.18.155c.264.223.527.446.695.673.447.574.229 1.251-.57 2.162-.801.857-2.092 2.239-4.08 2.814-11.68 4.355-24.963 3.996-37.504 1.791-9.367-1.668-18.538-4.709-27.206-8.677l.074-.19-.001-.053Zm-21.471-146.923c2.636-5.98 4.783-12.212 6.142-18.765l.052-.055.216.046.086-.578c.476-3.17.95-6.327.99-9.661.123-3.513-.164-7.306-1.583-11.329-.972-2.672-2.593-5.537-5.149-7.567-2.449-2.034-5.463-3.353-8.122-3.665-5.457-.755-9.94.386-13.985 1.834-2.656 1.401-3.863 2.914-3.234 4.125.118.191.257.374.4.562.13.172.265.348.386.537 1.123 1.569 2.431 2.275 5.784 1.734l2.662-.41c3.97-.481 8.038-.457 10.734 1.756 3.441 2.911 3.934 8.867 3.499 14.264-.225 3.677-.958 7.343-1.828 10.934-1.518 5.836-3.684 11.478-6.339 16.87-.222.454-.443.911-.665 1.369-2.157 4.452-4.368 9.014-7.644 12.621-5.875 6.731-12.158 12.458-18.668 17.818-.236.142-.47.337-.677.558a8.914 8.914 0 0 1-.238.381c-.095.147-.187.29-.27.439-.162.318-.36.649-.566.998-.112.189-.228.384-.344.586a29.406 29.406 0 0 0-1.381 2.698c-.673 1.495-.256 7.29 1.208 7.053 4.936-.406 8.646-8.401 12.377-11.231 2.851-2.279 5.478-4.922 8.053-7.512l.043-.043c5.848-5.927 10.977-12.579 15.148-19.869a88.26 88.26 0 0 0 2.913-6.498Z" />
  <path fill="currentColor" fill-rule="evenodd"
    d="m107.643 194.068-1.188 2.878a7.884 7.884 0 0 0-.098.208l-.037.083-.029.064c-.12.28-.257.553-.412.816l-.51.767c-.31.332-.723.774-1.168 1.084-.918.539-1.897.866-3.272.564a6.05 6.05 0 0 1-.919-.29 1.522 1.522 0 0 1-.492-.305c-.328-.203-.659-.514-.88-.72-.25-.287-.56-.732-.729-.994-.087-.145-.164-.301-.238-.448a8.756 8.756 0 0 0-.133-.263c-.12-.309-.234-.59-.34-.853-.316-.772-.565-1.383-.667-2.059-.039-.357-.085-.713-.139-1.068-.16-1.126-.318-2.219-.019-3.64.264-1.723.772-3.32 1.366-4.786.207-.464.394-.934.58-1.4.323-.817.641-1.62 1.06-2.35.805-1.527 1.747-2.978 3.296-3.86.5-.258 1.19.389 1.784 1.36.054.086.106.172.156.26l.057.098c.013-.144.029-.301.051-.474l.03-.698c.058-.671.783-1.392 2.377-.936 1.137.39 2.21 1.292 2.886 2.287.516 1.054.736 2.037.848 2.971.108.826.068 2.033-.062 2.948a28.364 28.364 0 0 1-.585 2.51c-.55 1.959-1.302 3.73-2.033 5.455-.127.299-.253.596-.377.892l-.111-.103-.053.002Zm-2.065-9.76c.087-.501.037-1.073-.082-1.609-.342 2.298-.879 4.012-1.495 5.817.697-1.408 1.364-2.816 1.577-4.208Zm-1.597 10.436-.01.005-.007.002h-.003l.02-.008.003-.001-.003.002Zm58.661 7.533c-.932 1.797-1.895 3.407-2.852 4.431-1.007 1.078-1.87 1.669-2.737 2.154-.176.08-.353.187-.539.3-.482.292-1.024.621-1.758.607-.883.003-1.987-.202-2.648-.769-.687-.539-1.108-1.141-1.425-1.8-.474-1.376-.812-2.677-.904-4.629a20.977 20.977 0 0 1 .395-5.798c.084-.699.404-1.54.749-2.409.105-.269.2-.542.294-.813.171-.493.341-.982.568-1.438.205-.387.376-.708.526-.983a5.887 5.887 0 0 1-.328-.283c-1.027-1.117-1.605-2.383-1.432-3.621.154-.996.555-1.813 1.245-2.773l.113-.139.064-.08c.681-.849 1.523-1.9 3.689-2.588 1.06-.304 2.127-.393 3.224-.403 1.614.267 3.287.693 4.534 1.964.804.71 1.099 1.195 1.453 1.777.071.116.144.236.224.363.323.489.499 1.079.67 1.658.068.227.135.453.21.669.432 2.53.044 5.328-.674 7.869-.491 2.093-1.272 3.916-2.01 5.642-.176.411-.349.816-.516 1.218l-.135-.126Zm-7.722-9.469c-.119.367-.264.873-.438 1.571-.211.891-.163 1.505.061 1.819.226.367.702.191.94.103.501-.205.861-.645 1.343-1.438.279-.465.633-1.066.85-1.796.036-.121.074-.241.112-.363.143-.452.29-.917.336-1.446.042-.323.058-.672-.007-.991a.842.842 0 0 0-.069-.3c-.045.168-.083.208-.104.231-.012.013-.019.02-.02.041l.001.022.006.039c.042.148-.146.408-.385.738-.103.143-.216.299-.324.464-.1.107-.18.246-.263.388-.088.151-.178.306-.298.434-.566.426-1.108.614-1.741.484Z"
    clip-rule="evenodd" />
  <path fill="currentColor"
    d="M190.698 169.334c.613.729.111 1.71-1.036 2.606-.366.28-1.641.537-1.888.357h-.001c-.491-.305-.983-.61-1.393-.89a4.26 4.26 0 0 1-.285-.399c-.256-.38-.655-.97-1.118-1.536-.311-.292-.623-.59-.917-.872-.539-.515-1.017-.973-1.32-1.222-.627-.31-1.11-.693-1.588-1.072-.413-.327-.821-.651-1.314-.92-.88-.721-1.787-1.413-2.901-1.938-.745-.469-1.587-.803-2.423-1.135-.3-.119-.598-.237-.891-.361l-.074-.038-.076-.037c-.107-.052-.216-.102-.325-.152l-.001-.001c-.349-.161-.703-.325-1.022-.552-1.67-1.15-3.692-1.591-5.756-1.709-.066-.003-.131-.009-.196-.015-.277-.024-.551-.048-.869.158-.553.259-6.078-.145-6.806-.308-1.421-.436-2.851-.657-4.311-.883l-.564-.087c-.215-.034-.43-.068-.646-.104-.077-.013-.153-.012-.231-.012-.192.001-.388.002-.605-.201-.568-.532-1.038-.477-1.513-.422l-.131.015-.109.01c-.311.011-.602.041-.89.07-.452.047-.898.093-1.406.061-.188.006-.407-.07-.659-.157a5.433 5.433 0 0 0-.583-.177c-.431-.092-.836-.989-.762-1.179.152-.332-.112-.572-.382-.816l-.132-.123a3.861 3.861 0 0 1-.11-.112c-.11-.103-.222-.26-.226-.367-.083-.078 1.157-1.404 2.411-2.303 1.304-1.008 2.671-1.75 2.988-1.868 0 0 .557-.153 1.298-.392.218-.054.461-.125.721-.202.627-.185 1.358-.4 2.092-.481a97.47 97.47 0 0 1 4.432-.705h.001l.195-.027.11-.016c.367-.077.775.021 1.147.11l.098.023.151.035 2.099-.103 1.32-.065c1.683-.083 3.373.048 3.454.072l.483.08c1.15.186 2.347.379 3.36 1.237.215.201.499.223.736.241l.022.002c2.266.567 4.412 1.539 6.459 2.729.117.059.235.117.354.175.952.471 1.936.956 2.862 1.592.127.085.232.195.337.304.052.055.105.11.16.162l.099.096.113.115c.129.132.252.257.395.358 1.113.713 2.081 1.673 3.014 2.597l.117.117.177.174c.486.56.928 1.154 1.369 1.749l.001.001c.441.594.882 1.188 1.368 1.747.251.29.566 1.355.869 2.381.268.907.527 1.783.725 2.065.097.192.015.681-.067 1.166-.086.513-.171 1.021-.043 1.168l.033.186Zm-61.162 123.729c4.781.806 12.32 2.076 12.32 3.573.016 7.862-19.166 5.426-26.203 1.819-7.021-3.606-2.815-9.373 0-9.13 1.495.13 3.516.841 5.635 1.587 1.87.658 3.817 1.343 5.544 1.679.68.131 1.621.29 2.704.472ZM100.629 239.955c4.781.806 12.32 2.076 12.32 3.573.016 7.862-19.166 5.426-26.203 1.819-7.021-3.606-2.561-12.59.254-12.347 1.495.13 3.262 4.058 5.381 4.804 1.87.658 3.817 1.343 5.544 1.679.68.131 1.621.29 2.704.472Z" />
</svg>
