<svg width="127" height="37" viewBox="0 0 127 37" fill="none" xmlns="http://www.w3.org/2000/svg">
  <path
    d="M17.263 6.499c-1.136-.366-2.105-.161-2.838.759-1.336 1.686-1.59 3.773-2.527 5.643-.77 1.51-1.97 2.523-3.768 2.206-3.429-.606-6.684 3.226-2.927 5.783 1.42.964 2.962 1.719 4.438 2.581.975.572 2.306 1.293 2.336 2.57.02 1.014-.87 1.755-.88 2.709-.037 2.095 3.14 3.204 4.825 3.113 2.637-.136 4.135-2.935 4.999-5.086.74-1.844 1.836-2.22 3.82-2.52 1.224-.192 4.154-.644 4.508-2.093.841-3.445-6.578-2.03-7.107-4.923-.202-1.176.334-2.283.398-3.438.13-2.3-1.162-4.505-2.92-5.938A7.686 7.686 0 0 0 17.263 6.5ZM52.716 7.983c-.988.67-1.424 1.56-1.15 2.704.506 2.091 1.995 3.577 2.891 5.466.716 1.535.775 3.106-.581 4.328-2.59 2.328-1.573 7.252 2.755 5.866 1.634-.525 3.178-1.276 4.766-1.908 1.05-.416 2.439-1.021 3.464-.258.81.607.847 1.765 1.593 2.36 1.627 1.32 4.457-.5 5.423-1.885 1.516-2.162.233-5.065-.93-7.07-.998-1.719-.62-2.815.366-4.562.602-1.083 2.05-3.67 1.126-4.841-2.196-2.784-5.65 3.934-8.255 2.57-1.05-.565-1.593-1.67-2.464-2.43-1.733-1.52-4.266-1.859-6.477-1.355a7.687 7.687 0 0 0-2.527 1.015ZM117.03 27.418c.938-.737 1.311-1.655.958-2.777-.651-2.05-2.239-3.429-3.266-5.25-.821-1.482-.989-3.045.278-4.358 2.421-2.503 1.063-7.345-3.157-5.66-1.594.638-3.082 1.495-4.622 2.236-1.019.488-2.361 1.188-3.437.498-.851-.548-.968-1.701-1.754-2.242-1.715-1.203-4.412.81-5.278 2.258-1.362 2.262.12 5.07 1.421 6.989 1.116 1.644.814 2.764-.047 4.575-.525 1.123-1.789 3.804-.785 4.908 2.385 2.624 5.361-4.318 8.055-3.139 1.088.49 1.706 1.554 2.628 2.253 1.834 1.394 4.385 1.556 6.555.899a7.689 7.689 0 0 0 2.451-1.19Z"
    fill="currentColor" />
</svg>